<svg width="24" height="24" viewBox="0 0 24 24" fill="none" xmlns="http://www.w3.org/2000/svg">
<path d="M13.9115 12.0051L8.27814 5.81168C8.08653 5.60102 7.99392 5.35174 8.00031 5.06384C8.0067 4.77593 8.10569 4.52665 8.2973 4.31599C8.48891 4.10533 8.71565 4 8.97752 4C9.23938 4 9.46612 4.10533 9.65773 4.31599L15.5401 10.8043C15.6934 10.9729 15.8084 11.1625 15.885 11.3731C15.9617 11.5838 16 11.7944 16 12.0051C16 12.2158 15.9617 12.4264 15.885 12.6371C15.8084 12.8477 15.6934 13.0373 15.5401 13.2059L9.63857 19.6942C9.44696 19.9049 9.22342 20.0067 8.96794 19.9997C8.71246 19.9926 8.48891 19.8838 8.2973 19.6731C8.10569 19.4625 8.00989 19.2132 8.00989 18.9253C8.00989 18.6374 8.10569 18.3881 8.2973 18.1774L13.9115 12.0051Z" fill="#1757B9"/>
</svg>
