<svg width="24" height="24" viewBox="0 0 24 24" fill="none" xmlns="http://www.w3.org/2000/svg">
<path d="M10.0885 11.9949L15.7219 18.1883C15.9135 18.399 16.0061 18.6483 15.9997 18.9362C15.9933 19.2241 15.8943 19.4733 15.7027 19.684C15.5111 19.8947 15.2843 20 15.0225 20C14.7606 20 14.5339 19.8947 14.3423 19.684L8.45986 13.1957C8.30658 13.0271 8.19161 12.8375 8.11497 12.6269C8.03832 12.4162 8 12.2056 8 11.9949C8 11.7842 8.03832 11.5736 8.11497 11.3629C8.19161 11.1523 8.30658 10.9627 8.45986 10.7941L14.3614 4.3058C14.553 4.09514 14.7766 3.99332 15.0321 4.00034C15.2875 4.00736 15.5111 4.1162 15.7027 4.32686C15.8943 4.53752 15.9901 4.78681 15.9901 5.07471C15.9901 5.36261 15.8943 5.61189 15.7027 5.82255L10.0885 11.9949Z" fill="#777E98"/>
</svg>
