<svg width="16" height="16" viewBox="0 0 16 16" fill="none" xmlns="http://www.w3.org/2000/svg">
<path d="M7.39971 14.4V1.20001H8.19971V14.4H7.39971ZM10.0924 5.16001C10.0339 4.63751 9.79646 4.23189 9.38019 3.94314C8.96393 3.65439 8.45337 3.51001 7.84849 3.51001C7.40621 3.51001 7.01922 3.58564 6.68751 3.73689C6.35906 3.88814 6.10215 4.09611 5.91678 4.36079C5.73467 4.62548 5.64361 4.92626 5.64361 5.26314C5.64361 5.54501 5.70702 5.78736 5.83385 5.99017C5.96393 6.18954 6.12979 6.35626 6.33141 6.49032C6.53304 6.62095 6.74442 6.72923 6.96556 6.81517C7.1867 6.89767 7.38995 6.9647 7.57532 7.01626L8.58995 7.30501C8.85011 7.3772 9.13954 7.47689 9.45824 7.60407C9.78019 7.73126 10.0875 7.90486 10.3802 8.12486C10.6761 8.34142 10.92 8.61986 11.1119 8.96017C11.3038 9.30048 11.3997 9.71814 11.3997 10.2131C11.3997 10.7838 11.2582 11.2994 10.9753 11.76C10.6956 12.2206 10.2859 12.5867 9.74605 12.8583C9.20946 13.1299 8.55743 13.2656 7.78995 13.2656C7.0745 13.2656 6.45499 13.1436 5.93141 12.8995C5.41109 12.6555 5.00133 12.3152 4.70215 11.8786C4.40621 11.442 4.23873 10.935 4.19971 10.3575H5.44849C5.48101 10.7563 5.60784 11.0863 5.82898 11.3475C6.05337 11.6053 6.33629 11.7978 6.67776 11.925C7.02247 12.0488 7.3932 12.1106 7.78995 12.1106C8.25174 12.1106 8.66637 12.0316 9.03385 11.8735C9.40133 11.7119 9.69239 11.4885 9.90702 11.2031C10.1217 10.9144 10.229 10.5775 10.229 10.1925C10.229 9.84189 10.1363 9.55658 9.95093 9.33658C9.76556 9.11658 9.52166 8.93783 9.21922 8.80033C8.91678 8.66283 8.58995 8.54251 8.23873 8.43939L7.00946 8.06814C6.22898 7.83095 5.61109 7.49236 5.1558 7.05236C4.70052 6.61236 4.47288 6.03658 4.47288 5.32501C4.47288 4.73376 4.6241 4.21814 4.92654 3.77814C5.23223 3.3347 5.64198 2.99095 6.1558 2.74689C6.67288 2.49939 7.25011 2.37564 7.88751 2.37564C8.53141 2.37564 9.10377 2.49767 9.60459 2.74173C10.1054 2.98236 10.5021 3.31236 10.7948 3.73173C11.0908 4.15111 11.2469 4.6272 11.2631 5.16001H10.0924Z" fill="#1757B9"/>
</svg>
