<svg width="16" height="16" viewBox="0 0 16 16" fill="none" xmlns="http://www.w3.org/2000/svg">
<path d="M10.4642 6.09785L10.0118 7.08132H3.59961L3.95366 6.09785H10.4642ZM9.61845 8.06479L9.16606 9.04826H3.59961L3.95366 8.06479H9.61845ZM11.6247 3.44247L11.1527 4.46528C10.9429 4.27515 10.7216 4.11123 10.4888 3.97355C10.2561 3.83586 10.0118 3.72932 9.75614 3.65392C9.50044 3.57852 9.23162 3.54082 8.94969 3.54082C8.39239 3.54082 7.89082 3.6949 7.44498 4.00305C6.99914 4.31121 6.64673 4.76524 6.38775 5.36516C6.12877 5.96508 5.99928 6.70104 5.99928 7.57305C5.99928 8.44506 6.12877 9.18103 6.38775 9.78094C6.64673 10.3809 6.99914 10.8349 7.44498 11.1431C7.89082 11.4512 8.39239 11.6053 8.94969 11.6053C9.23818 11.6053 9.51027 11.5676 9.76597 11.4922C10.025 11.4168 10.2659 11.3135 10.4888 11.1824C10.715 11.0513 10.9232 10.9037 11.1133 10.7398L11.6051 11.7626C11.2608 12.0872 10.8576 12.3331 10.3954 12.5002C9.93316 12.6642 9.45126 12.7461 8.94969 12.7461C8.14325 12.7461 7.42859 12.5363 6.80573 12.1167C6.18614 11.6971 5.69932 11.1004 5.34527 10.3268C4.9945 9.55311 4.81911 8.6352 4.81911 7.57305C4.81911 6.5109 4.9945 5.593 5.34527 4.81933C5.69932 4.04567 6.18614 3.44903 6.80573 3.02942C7.42859 2.6098 8.14325 2.39999 8.94969 2.39999C9.47093 2.39999 9.95775 2.49015 10.4101 2.67045C10.8658 2.85075 11.2707 3.10809 11.6247 3.44247Z" fill="#1757B9"/>
</svg>
