<svg width="16" height="16" viewBox="0 0 16 16" fill="none" xmlns="http://www.w3.org/2000/svg">
<path d="M8.97651 8.6868H3.59961V7.54938H8.97651C9.47284 7.54938 9.883 7.46321 10.207 7.29088C10.531 7.11509 10.7723 6.87727 10.9308 6.5774C11.0894 6.27409 11.1686 5.92942 11.1686 5.54338C11.1686 5.15735 11.0894 4.8144 10.9308 4.51453C10.7723 4.21122 10.531 3.9734 10.207 3.80106C9.883 3.62528 9.47284 3.53739 8.97651 3.53739H6.55691V12.9883H5.27472V2.39996H8.97651C9.76237 2.39996 10.4104 2.543 10.9205 2.82908C11.4306 3.11516 11.8097 3.49602 12.0579 3.97167C12.3061 4.44732 12.4301 4.97123 12.4301 5.54338C12.4301 6.11554 12.3061 6.63944 12.0579 7.11509C11.8097 7.59074 11.4306 7.97161 10.9205 8.25768C10.4104 8.54376 9.76237 8.6868 8.97651 8.6868ZM8.89379 9.67946V10.8169H3.59961V9.67946H8.89379Z" fill="#1757B9"/>
</svg>
