<svg width="364" height="364" viewBox="0 0 364 364" fill="none" xmlns="http://www.w3.org/2000/svg">
<path d="M242.225 77.1036C237.885 79.2894 234.607 81.3988 233.466 85.734C233.018 87.4321 233.014 87.4667 232.496 87.1063C229.984 85.3682 227.454 83.359 224.251 83.8431C222.651 84.0851 219.941 85.2226 220.009 86.8188C219.896 87.9071 220.988 88.1911 221.756 87.5504C227.742 82.56 233.977 94.8486 235.371 89.4905C235.748 88.0473 235.331 87.9745 236.345 85.3937C237.936 81.3497 243.157 80.2959 244.327 78.3958C245.037 77.2438 243.679 76.3702 242.223 77.1036H242.225Z" fill="#1757B9"/>
<path d="M40.7257 258.092C39.2807 258.019 36.5197 258.976 34.0281 261.495C31.8842 263.665 32.9525 265.202 31.815 264.635C29.5801 263.519 27.0011 262.068 24.3093 262.118C19.3771 262.209 20.5492 265.998 22.513 264.957C24.7789 263.754 28.832 266.011 31.0379 267.215C36.1903 270.031 33.2364 264.762 37.1676 262.258C38.8056 261.215 40.2562 260.51 41.2426 259.737C41.9288 259.198 42.0034 258.155 40.7257 258.092Z" fill="#1757B9"/>
<path d="M76.6723 246.602C76.3738 247.057 76.3574 247.037 75.8424 246.787C71.6254 244.747 71.1231 244.267 67.3594 243.899C66.5149 244.092 65.1553 244.172 65.27 245.331C65.3446 246.087 66.3056 246.349 67.0627 246.371C73.5182 246.544 76.2246 252.628 78.6616 248.376C80.6545 244.9 88.3913 241.213 88.1565 240.59C87.2702 238.233 79.2512 242.683 76.6723 246.602Z" fill="#1757B9"/>
<path d="M279.378 86.2957C274.872 88.0247 274.277 89.022 272.502 91.9067C270.413 90.5763 268.127 89.0129 265.333 89.3678C262.085 89.7791 263.499 93.2462 265.341 92.0141C266.933 90.9494 271.505 94.5421 272.096 94.8915C273.148 95.514 274.148 95.1609 274.599 94.0161C276.739 88.5779 279.904 89.7464 281.331 87.7844C282.028 86.8253 281.089 85.6423 279.378 86.2993V86.2957Z" fill="#1757B9"/>
<path d="M284.638 58.9583C280.434 62.1232 280.977 63.8431 280.363 63.4082C278.197 61.8739 276.852 60.7546 274.881 60.5799C273.054 60.5417 272.21 61.6591 272.672 62.6146C273.311 63.9378 273.789 62.4891 275.675 63.3681C278.878 64.8623 281.879 69.4633 282.904 65.1754C283.808 61.388 289.276 59.77 289.314 59.7518C291.048 58.86 288.919 55.7332 284.64 58.9564L284.638 58.9583Z" fill="#1757B9"/>
<path d="M45.3425 229.32C43.3223 228.183 41.4186 226.929 38.8415 227.277C37.3855 227.473 37.1088 229.24 38.8906 229.346C44.145 229.659 45.9504 235.456 47.9542 230.008C48.6895 228.01 51.354 224.909 51.9691 224.235C55.7001 220.142 55.8166 220.854 56.5264 220.164C57.451 219.265 51.3631 218.326 45.3443 229.319L45.3425 229.32Z" fill="#1757B9"/>
<path d="M204.087 298.204C204.087 290.907 204.451 285.032 209.565 279.683C216.234 272.706 221.055 271.291 227.294 271.432C235.693 271.621 242.507 274.271 247.824 280.775C252.721 286.769 251.744 287.682 252.665 285.851C257.493 276.253 266.118 270.245 274.139 268.631C286.806 266.083 303.763 278.142 302.979 290.536C302.653 295.689 297.444 306.004 299.104 306.059C307.591 306.337 313.884 307.642 323.732 317.45C325.769 319.478 328.719 323.702 329.134 326.483C329.394 328.23 330.29 328.075 336.931 329.753C344.828 331.75 348.055 332.26 351.172 335.348C353.757 337.909 352.617 341.489 349.849 343.152C343.705 346.849 337.681 347.056 331.214 346.958C309.505 346.625 301.226 347.806 246.375 346.013C219.222 345.125 244.555 345.702 200.129 344.315C140.627 342.457 144.608 344.39 136.662 343.238C130.987 342.415 122.761 340.823 124.777 335.456C126.02 332.15 131.828 331.279 135.857 330.13C142.604 328.208 144.155 327.089 154.094 326.945C158.473 326.882 163.396 327.517 163.96 323.161C164.58 318.382 163.916 316.932 165.594 312.62C166.905 309.253 170.768 304.561 176.489 301.813C186.628 296.941 194.942 303.305 202.136 307.65C203.485 308.465 203.705 308.951 203.865 308.403C203.92 308.217 204.202 298.198 204.085 298.198L204.087 298.204ZM206.24 307.62C206.22 308.541 206.024 309.424 205.823 310.309C205.176 313.155 202.127 310.545 200.596 309.619C190.681 303.624 188.956 302.357 182.598 302.697C176.43 303.029 169.316 308.982 167.573 314.748C165.549 321.434 169.438 328.463 157.455 328.967C152.13 329.191 151.564 328.656 146.806 329.429C140.886 330.392 140.202 331.402 130.173 333.974C127.25 334.724 124.044 337.492 130.415 339.41C141.033 342.606 149.773 340.28 165.168 341.067C165.521 341.085 165.25 341.7 218.662 342.279C218.704 342.279 281.117 345.933 326.904 344.572C329.569 344.492 344.116 346.026 349.804 340.619C350.648 339.814 350.945 337.958 349.856 336.862C346.257 333.241 342.038 333.528 329.671 330.141C326.775 329.348 327.303 326.993 326.065 324.627C323.616 319.944 320.818 317.869 318.518 315.787C305.128 303.673 294.732 311.697 296.014 305.862C298.751 293.403 305.649 288.676 293.857 277.11C291.085 274.393 288.903 273.585 283.883 271.599C279.563 269.89 273.941 270.016 267.738 273.503C253.797 281.34 255.338 290.32 251.95 289.996C249.292 289.743 245.778 274.981 229.771 273.912C228.364 273.818 224.366 273.759 222.507 274.105C217.735 274.993 213.014 279.21 210.268 282.605C205.858 288.05 206.544 293.044 206.238 307.622L206.24 307.62Z" fill="#1757B9"/>
<path d="M247.609 132.575C255.254 132.493 260.582 132.897 267.647 140.884C271.441 145.173 271.207 146.398 271.676 145.565C281.428 128.28 286.817 125.71 300.068 124.966C314.135 124.176 322.749 138.052 322.705 146.254C322.605 165.67 315.083 154.637 332.259 161.095C336.834 162.815 340.591 165.909 340.299 170.792C340.125 173.718 338.72 175.684 336.77 179.005C335.788 180.68 334.994 179.761 344.988 183.157C346.269 183.592 350.779 185.173 352.428 186.06C355.464 187.69 355.373 189.623 353.922 190.53C348.873 193.68 338.971 192.064 330.553 192.459C323.324 192.799 241.837 192.08 231.587 191.223C228.506 190.965 222.664 191.238 222.054 191.23C200.44 190.965 184.436 193.121 179.974 188.842C178.958 187.869 178.909 186.626 179.917 185.621C180.509 185.03 181.237 184.655 181.957 184.276C188.22 180.978 194.368 179.65 197.624 178.832C200.039 178.226 200.638 178.62 200.372 177.851C199.167 174.361 199.934 169.743 201.976 166.471C205.259 161.211 215.149 159.186 222.96 163.188C226.163 164.829 225.435 164.746 224.291 159.579C221.548 147.208 231.452 132.748 247.61 132.574L247.609 132.575ZM345.191 190.329C348.091 190.337 353.383 189.328 352.242 188.498C351.836 188.204 351.427 187.889 350.968 187.707C337.147 182.192 332.795 183.033 333.849 179.761C334.903 176.49 343.719 168.295 331.836 163.423C328.038 161.865 322.647 160.889 320.123 160.955C318.781 160.989 317.864 160.083 318.288 158.623C321.87 146.315 321.058 139.682 312.193 131.201C310.013 129.117 306.848 128.218 303.83 127.638C300.813 127.057 300.601 127.308 295.513 127.801C275.613 129.727 273.78 156.439 269.62 147.956C268.027 144.711 264.806 140.765 259.593 137.275C256.583 135.258 253.38 135.296 250.302 135.061C242.684 134.481 237.344 135.753 230.666 143.219C227.144 147.157 225.37 153.715 226.871 160.005C227.394 162.196 227.419 164.482 228.149 166.631C228.307 167.097 228.104 167.503 227.712 167.791C226.89 168.397 226.165 167.612 225.783 167.35C216.74 161.155 203.164 162.214 202.274 172.748C202.129 174.461 202.005 176.206 202.536 177.908C203.805 181.976 193.256 179.633 181.517 186.762C181.118 187.004 181.115 187.263 181.517 187.452C188.908 190.937 206.167 187.962 241.805 189.35C270.26 190.459 345.09 190.328 345.191 190.328V190.329Z" fill="#1757B9"/>
<path d="M24.7659 343.218C101.812 343.218 97.8881 345.771 102.373 343.105C105.7 341.125 97.1492 338.435 92.8321 337.353C82.378 334.738 80.7364 336.258 79.4697 329.753C78.3449 323.98 78.5797 321.159 74.7195 319.059C72.9159 318.078 69.1994 317.102 66.5313 317.252C62.3926 317.483 60.4489 318.729 55.5385 321.767C53.2872 323.159 51.9549 324.694 50.6027 322.631C48.5078 319.437 47.6415 304.426 31.0013 306.654C23.188 307.7 19.2532 317.091 16.7707 313.848C16.2101 313.117 15.6222 310.523 13.3891 309.227C11.1123 307.906 10.1022 308.17 9.35598 307.302C7.65792 305.331 14.7832 305.225 17.5551 309.962C18.405 311.415 18.1884 311.711 19.1403 310.933C24.7841 306.315 26.1764 304.1 34.33 304.015C38.9856 303.966 43.4883 305.645 46.7898 309.424C50.0457 313.149 50.1295 314.549 51.4362 318.344C52.3426 320.97 52.2461 321.015 52.8849 320.626C57.6351 317.723 60.3178 315.819 63.7831 315.217C67.6269 314.549 71.6291 315.171 74.856 316.509C79.1439 318.287 80.2705 321.015 80.9894 324.75C83.4409 337.475 81.2296 330.423 98.4723 336.58C102.176 337.903 103.849 338.675 105.11 340.864C105.945 342.311 105.447 344.348 102.214 345.633C97.6806 347.434 91.2815 346.404 88.1165 346.266C67.3175 345.351 14.5357 346.382 10.468 345.272C9.90016 345.118 9.63808 344.026 10.5317 343.805C12.6975 343.27 24.7659 343.179 24.7659 343.218Z" fill="#1757B9"/>
<path d="M143.492 210.925C145.194 193.557 144.124 194.014 145.027 192.994C171.118 163.571 194.445 138.067 197.827 98.6347C199.878 74.7381 188.994 53.4969 176.784 45.3579C171.906 42.1001 169.691 40.1691 164.089 37.9559C162.681 37.399 162.255 36.9477 161.407 36.0522C155.215 29.4948 143.694 23.0556 133 22.5351C131.51 22.4641 131.453 21.5832 126.346 19.4666C121.641 17.5155 114.645 16.1414 109.124 18.1289C108.317 18.4201 108.052 18.3145 107.34 18.036C101.794 15.8575 93.8282 16.2943 88.5502 21.2647C88.088 21.7015 87.926 21.8344 87.6366 21.7943C85.3598 21.4485 82.81 21.4904 80.2638 21.9163C63.9857 24.6372 57.9851 32.698 55.1004 36.5709C54.2359 37.7321 53.6117 38.5693 53.1294 38.7003C50.5122 39.4119 47.056 41.9326 44.8921 43.8782C32.9711 54.5634 29.766 69.3145 28.2482 70.8634C20.2292 79.0697 14.8002 91.1473 13.7282 103.172C13.1422 109.782 13.5407 109.626 13.5262 110.701C13.3278 126.896 24.9285 146.461 34.9221 158.296C56.1688 183.454 94.518 199.71 97.188 204.925C108.261 226.575 111.48 229.418 110.747 230.554C109.566 232.394 111.295 235.386 113.055 236.722C113.641 237.166 113.624 237.399 113.535 238.689C113.266 242.555 113.493 248.841 113.845 253.038C114.017 255.102 114.005 255.173 113.393 255.597C111.653 256.804 110.905 259.215 112.294 261.05C112.572 261.417 112.529 261.461 112.097 261.885C110.223 263.731 110.678 264.761 106.717 268.514C105.152 269.995 104.119 270.976 104.49 273.526C104.628 274.472 105.966 275.945 108.021 276.127C110.25 276.325 111.908 274.334 113.286 272.281C113.124 282.285 112.76 286.146 116.567 287.627C124.169 290.583 129.972 288.717 136.727 286.952C151.386 283.119 162.966 280.103 165.349 275.571C165.878 274.565 165.942 273.489 165.538 272.377C164.619 269.844 162.939 266.422 163.012 265.987C165.906 265.243 167.038 261.78 165.953 259.652C162.346 252.578 157.372 253.71 157.51 251.882C157.708 249.293 155.734 246.566 154.831 246.213C152.354 245.245 152.303 245.578 152.01 244.912C146.266 231.802 144.468 230.579 144.93 229.946C146.051 228.413 145.412 225.882 144.601 224.571C142.915 221.856 142.435 222.387 142.462 221.954C142.579 220.249 143.152 214.316 143.483 210.931L143.492 210.925ZM113.51 263.095C113.471 267.372 112.776 271.926 108.341 273.879C105.564 273.318 106.301 271.329 108.534 269.622C110.341 268.242 111.455 266.308 112.27 264.895C112.733 264.091 113.144 263.377 113.51 263.095ZM132.532 253.85C114.07 258.775 115.364 261.237 114.422 259.934C114.152 259.561 113.894 259.212 113.914 258.729C113.981 257.257 115.488 256.396 116.74 255.932C134.693 249.289 140.182 248.739 149.904 247.68C151.138 247.545 153.428 247.298 154.421 249.182C154.711 249.729 155.169 250.448 155.235 251.191C149.72 249.454 138.171 252.345 132.531 253.848L132.532 253.85ZM115.854 238.682C115.878 238.673 116.016 238.629 116.684 238.837C122.038 240.511 121.496 237.555 122.177 241.887C122.772 245.658 123.07 247.067 123.443 248.757C124.297 252.605 123.769 249.98 116.329 253.999C116.098 254.126 116.125 239.284 115.854 238.682ZM126.102 238.658C135.064 236.764 134.74 235.666 135.031 236.511C136.513 240.859 136.746 241.965 138.642 246.397C139.061 247.374 138.857 246.146 126.393 250.039C125.891 250.197 126.239 251.093 124.186 239.597C124.169 239.242 124.808 238.929 126.102 238.658ZM149.637 245.279C149.109 245.33 146.737 245.289 142.167 246.186C141.954 246.224 141.667 246.215 141.401 246.251C140.97 246.311 140.97 246.313 140.837 245.933C139.889 243.221 137.279 235.728 137.21 235.555C136.966 234.965 140.271 233.957 143.117 232.228C143.301 232.312 143.35 232.57 147.353 240.478C149.062 243.856 149.662 245.045 149.637 245.279ZM143.105 228.737C143.008 228.686 142.908 228.619 142.79 228.541C141.365 227.605 138.396 225.656 121.374 231.507C115.734 233.446 115.958 235.572 115.548 235.531C114.498 235.43 111.739 231.824 113.244 230.703C116.935 227.96 132.6 223.35 140.304 223.696C141.718 223.758 143.891 226.335 143.105 228.737ZM42.7499 78.551C43.1576 104.912 58.9334 138.435 72.3195 159.13C75.9212 164.697 90.7342 185.37 97.8049 193.517C97.8905 193.617 98.0506 193.801 98.0525 193.852C98.0361 193.926 97.4537 194.361 97.3936 194.407C96.9513 194.743 96.4927 195.089 96.1687 195.606C94.0867 195.592 58.9097 161.05 46.2989 141.525C37.7012 128.213 32.8073 117.15 30.4303 105.653L30.4212 105.618C22.7936 68.6411 46.9523 42.89 51.4714 42.0437C50.6378 45.1104 42.3568 53.0456 42.7499 78.551ZM136.78 204.934C136.906 210.867 136.98 213.575 136.713 221.226C136.708 221.348 136.322 221.465 135.554 221.579C135.506 221.587 132.354 222.102 132.307 222.096C132.203 221.845 132.514 213.009 131.369 202.477C131.349 202.295 131.098 200.147 131.246 199.976C131.282 199.951 131.524 199.963 131.57 199.965C133.542 200.04 134.982 199.341 136.651 198.7C136.693 198.897 136.647 198.682 136.78 204.934ZM125.931 186.162C126.858 186.772 127.329 186.321 127.407 186.845C129.134 198.502 129.049 198.367 128.499 198.786C126.554 200.265 123.663 201.732 121.221 201.629C117.006 201.485 117.233 202.147 115.863 197.701C112.993 188.397 112.445 188.798 112.971 188.25C117.115 183.938 121.476 183.236 125.931 186.162ZM117.921 203.574C121.121 203.661 122.542 204.673 128.445 201.534C128.623 201.439 128.763 201.332 128.876 201.245C129.085 201.083 129.083 200.733 129.375 204.275C129.893 210.536 130.356 214.447 130.672 221.474C130.729 222.755 130.701 222.417 126.393 223.461C124.422 223.936 124.435 224.087 124.29 223.765C124.157 223.476 117.938 203.774 117.92 203.572L117.921 203.574ZM109.717 205.827C113.928 205.651 115.137 203.654 115.461 203.632C115.503 203.661 121.461 221.703 122.524 224.435C122.224 224.65 122.257 224.633 121.458 224.874C116.274 226.437 116.462 226.77 116.225 226.255C110.277 213.271 107.192 206.413 106.818 205.354C107.129 205.369 107.951 205.891 109.717 205.827ZM114.309 201.871C111.963 203.205 108.909 204.524 106.08 202.85C105.342 202.409 105.562 202.471 101.971 194.787C101.767 194.358 101.933 194.702 103.412 192.616C104.81 190.65 108.326 187.755 110.512 188.634C110.794 188.747 110.96 189.291 113.053 195.916C114.813 201.487 114.982 201.485 114.307 201.869L114.309 201.871ZM136.227 196.605C134.498 197.506 133.755 197.526 132.634 197.528C130.903 197.532 130.973 197.639 130.823 195.896C130.556 192.796 130.23 191.318 129.682 188.543C129.165 185.955 129.144 185.935 129.331 185.847C131.977 184.615 133.002 185.25 134.456 186.386C136.82 188.233 136.358 194.336 136.58 195.812C136.664 196.354 136.649 196.383 136.227 196.605ZM126.432 183.711C121.692 180.36 115.881 182.071 112.509 185.543C110.518 183.771 90.7888 133.359 81.8053 92.6488C78.3473 76.9913 76.338 52.8745 82.0528 36.4381C83.5634 32.0846 85.7019 28.4592 89.2036 24.3169C91.5132 21.5796 96.3089 19.3282 101.438 19.4647C112.025 19.7032 118.626 30.503 122.67 38.6057C129.413 52.1174 131.719 72.5796 132.867 86.7956C136.436 130.963 127.396 180.484 126.432 183.711ZM96.3671 199.825C96.3944 199.55 96.6383 197.493 99.5539 195.61C99.8324 195.43 100.115 195.24 100.185 195.264C100.346 195.311 103.471 202.844 103.503 202.979C103.298 203.037 102.313 203.026 102.111 203.03C100.719 203.054 97.9633 202.462 96.9459 201.488C96.4945 201.055 96.2998 200.497 96.3671 199.825ZM104.763 205.967C107.951 213.737 113.559 224.537 114.904 227.178C114.629 227.407 114.656 227.374 112.62 228.474C112.159 228.723 112.197 228.781 110.643 225.796C109.69 223.967 100.424 206.914 99.503 205.05C104.763 205.86 104.097 204.34 104.761 205.966L104.763 205.967ZM141.667 194.42C140.644 195.455 138.598 195.75 138.558 195.311C138.518 194.875 138.684 194.758 138.256 191.417C137.934 188.91 137.976 189.056 138.191 189.105C140.648 189.697 140.413 190.299 141.509 191.471C142.229 192.241 142.218 193.861 141.667 194.42ZM140.653 221.416C140.06 221.396 139.607 221.396 139.261 221.396C138.797 221.396 138.431 221.396 138.375 221.337C138.262 221.146 138.542 216.984 138.586 216.496C138.744 214.729 138.88 213.202 138.737 198.234C138.72 196.547 140.045 198.247 142.642 196.121C142.824 196.005 141.321 220.018 140.653 221.416ZM141.27 188.443C141.088 188.383 140.435 187.269 138.711 186.972C138.635 186.959 138.544 186.943 138.493 186.928C138.587 186.644 138.777 187.036 145.554 169.662C155.115 145.156 159.801 130.858 162.779 106.231C164.28 93.8281 164.055 74.2376 160.016 60.5367C154.867 43.0629 148.226 36.4763 139.818 28.137C138.424 26.7538 137.417 26.1496 136.729 25.5126C156.547 31.1546 170.044 46.226 175.679 66.1204C179.297 78.895 178.562 89.2781 178.529 89.6021C178.529 89.6021 178.52 89.6385 178.52 89.6567C178.52 126.483 160.067 156.833 149.042 174.967C141.125 187.988 141.643 188.252 141.268 188.444L141.27 188.443ZM161.556 270.324C160.065 269.837 158.209 269.227 140.857 273.44C123.481 277.663 118.089 280.273 116.318 281.132C116.12 281.228 115.939 281.315 115.828 281.359C115.828 281.226 115.848 281.059 115.832 280.899C115.43 265.663 115.736 272.372 115.617 263.536C115.595 262.122 116.305 261.53 122.835 259.397C122.684 259.994 121.68 261.545 120.539 264.284C119.001 267.978 121.723 271.027 124.992 270.501C127.187 270.153 129.573 267.283 129.482 263.967C129.366 259.506 127.991 258.19 128.208 257.756C128.301 257.574 128.59 257.572 133.652 256.147C138.618 254.747 138.151 254.902 138.003 255.428C137.914 255.732 137.903 255.806 137.849 256.09C137.343 258.693 136.575 262.626 138.123 264.937C139.166 266.492 141.19 266.613 142.737 266.209C147.205 265.043 147.116 257.595 144.643 253.6C145.354 253.338 154.594 252.15 155.614 254.439C155.93 255.151 161.671 268.583 162.326 270.525C162.035 270.481 161.809 270.408 161.556 270.324ZM140.77 264.158C138.91 263.709 139.348 260.302 139.581 258.471C140.085 254.516 140.025 254.543 140.404 254.43C141.705 254.035 142.339 253.948 142.941 254.776C145.247 257.967 144.879 265.152 140.77 264.158ZM127.273 263.778C127.198 265.421 127.182 266.499 125.402 267.909C123.811 269.167 121.769 267.214 122.355 265.785C124.512 260.52 124.79 260.697 125.121 258.888C125.158 258.684 125.283 258.494 125.489 258.494C126.454 258.494 127.362 262.094 127.273 263.778ZM158.233 255.142C161.469 256.667 163.405 258.669 164.144 261.255C164.109 262.38 163.267 263.64 162.293 264.013C162.089 264.093 162.095 264.142 161.805 263.383C161.43 262.398 158.245 255.184 158.231 255.144L158.233 255.142Z" fill="#1757B9"/>
</svg>
