<svg width="73" height="74" viewBox="0 0 73 74" fill="none" xmlns="http://www.w3.org/2000/svg">
<g clip-path="url(#clip0_298_6717)">
<path d="M20.7464 47.2259C22.2866 48.3002 24.7837 48.3002 26.3239 47.2259C27.864 46.1516 27.864 44.4098 26.3239 43.3355C24.7837 42.2612 22.2866 42.2612 20.7464 43.3355C19.2063 44.4098 19.2063 46.1516 20.7464 47.2259Z" fill="#25CAAC"/>
<path d="M36.7322 32.6369C39.0425 34.2483 42.7881 34.2483 45.0984 32.6369C47.4086 31.0254 47.4086 28.4128 45.0984 26.8014C42.7881 25.1899 39.0425 25.1899 36.7322 26.8014C34.422 28.4128 34.422 31.0254 36.7322 32.6369Z" fill="#25CAAC"/>
<path d="M28.2466 39.9316C30.1718 41.2744 33.2932 41.2744 35.2184 39.9316C37.1436 38.5887 37.1436 36.4115 35.2184 35.0686C33.2932 33.7258 30.1718 33.7258 28.2466 35.0686C26.3214 36.4115 26.3214 38.5887 28.2466 39.9316Z" fill="#25CAAC"/>
<path d="M15.8663 38.9591C17.0215 39.7648 18.8943 39.7648 20.0494 38.9591C21.2045 38.1534 21.2045 36.8471 20.0494 36.0413C18.8943 35.2356 17.0215 35.2356 15.8663 36.0413C14.7112 36.8471 14.7112 38.1534 15.8663 38.9591Z" fill="#25CAAC"/>
<path d="M28.2466 24.3701C30.1718 25.7129 33.2932 25.7129 35.2184 24.3701C37.1436 23.0272 37.1436 20.85 35.2184 19.5071C33.2932 18.1643 30.1718 18.1643 28.2466 19.5071C26.3214 20.85 26.3214 23.0272 28.2466 24.3701Z" fill="#25CAAC"/>
<path d="M20.7464 31.6643C22.2866 32.7386 24.7837 32.7386 26.3239 31.6643C27.864 30.59 27.864 28.8482 26.3239 27.774C24.7837 26.6997 22.2866 26.6997 20.7464 27.774C19.2063 28.8482 19.2063 30.59 20.7464 31.6643Z" fill="#25CAAC"/>
<path d="M28.2466 55.4931C30.1718 56.8359 33.2932 56.8359 35.2184 55.4931C37.1436 54.1502 37.1436 51.973 35.2184 50.6301C33.2932 49.2873 30.1718 49.2873 28.2466 50.6301C26.3214 51.973 26.3214 54.1502 28.2466 55.4931Z" fill="#25CAAC"/>
<path d="M46.9011 40.4177C49.2114 42.0291 52.9571 42.0291 55.2673 40.4177C57.5776 38.8063 57.5776 36.1936 55.2673 34.5822C52.9571 32.9707 49.2114 32.9707 46.9011 34.5822C44.5909 36.1936 44.5909 38.8063 46.9011 40.4177Z" fill="#25CAAC"/>
<path d="M36.7322 48.1983C39.0425 49.8098 42.7881 49.8098 45.0984 48.1983C47.4086 46.5869 47.4086 43.9743 45.0984 42.3628C42.7881 40.7514 39.0425 40.7514 36.7322 42.3628C34.422 43.9743 34.422 46.5869 36.7322 48.1983Z" fill="#25CAAC"/>
</g>
<defs>
<clipPath id="clip0_298_6717">
<rect width="42" height="38" fill="white" transform="translate(15 18.5)"/>
</clipPath>
</defs>
</svg>
