<svg width="73" height="74" viewBox="0 0 73 74" fill="none" xmlns="http://www.w3.org/2000/svg">
<path d="M7.62082 56.9154V46.9326H5.98096V56.9154H7.62082Z" fill="#152C4F"/>
<path d="M8.62451 53.5877C8.62451 55.6272 9.99556 57.0763 12.079 57.0763C14.1624 57.0763 15.5334 55.6272 15.5334 53.5877C15.5334 51.5482 14.1624 50.0991 12.079 50.0991C9.99556 50.0991 8.62451 51.5482 8.62451 53.5877ZM10.2778 53.5877C10.2778 52.3935 10.9902 51.5616 12.079 51.5616C13.1677 51.5616 13.8801 52.3935 13.8801 53.5877C13.8801 54.7684 13.1677 55.6137 12.079 55.6137C10.9902 55.6137 10.2778 54.7684 10.2778 53.5877Z" fill="#152C4F"/>
<path d="M16.085 53.4535C16.085 55.3857 17.335 56.7812 19.2034 56.7812C20.1712 56.7812 21.0045 56.392 21.4212 55.748V56.8751C21.4212 57.9619 20.7357 58.6865 19.5931 58.6865C18.5716 58.6865 17.8727 58.19 17.7786 57.3178H16.1253C16.3403 59.0487 17.671 60.1758 19.4991 60.1758C21.6497 60.1758 23.0207 58.7669 23.0207 56.5799V50.287H21.5691L21.475 51.186C21.0717 50.4882 20.2384 50.0723 19.2571 50.0723C17.3619 50.0723 16.085 51.508 16.085 53.4535ZM17.7517 53.4133C17.7517 52.313 18.4507 51.508 19.4857 51.508C20.6147 51.508 21.3674 52.3265 21.3674 53.4133C21.3674 54.5135 20.6147 55.3588 19.4857 55.3588C18.4641 55.3588 17.7517 54.527 17.7517 53.4133Z" fill="#152C4F"/>
<path d="M23.832 53.5877C23.832 55.6272 25.2031 57.0763 27.2865 57.0763C29.3699 57.0763 30.7409 55.6272 30.7409 53.5877C30.7409 51.5482 29.3699 50.0991 27.2865 50.0991C25.2031 50.0991 23.832 51.5482 23.832 53.5877ZM25.4853 53.5877C25.4853 52.3935 26.1977 51.5616 27.2865 51.5616C28.3752 51.5616 29.0876 52.3935 29.0876 53.5877C29.0876 54.7684 28.3752 55.6137 27.2865 55.6137C26.1977 55.6137 25.4853 54.7684 25.4853 53.5877Z" fill="#152C4F"/>
<path d="M32.5156 48.9319C33.0533 48.9319 33.4969 48.5025 33.4969 47.9524C33.4969 47.4157 33.0533 46.9863 32.5156 46.9863C31.9646 46.9863 31.5479 47.4157 31.5479 47.9524C31.5479 48.5025 31.9646 48.9319 32.5156 48.9319ZM31.6957 56.9154H33.3356V50.2871H31.6957V56.9154Z" fill="#152C4F"/>
<path d="M34.7725 59.9877H36.3719V56.0027C36.7887 56.6869 37.6892 57.0895 38.6839 57.0895C40.6464 57.0895 41.8158 55.5867 41.7888 53.5203C41.7486 51.4406 40.5523 50.0854 38.6704 50.0854C37.6624 50.0854 36.7483 50.5282 36.3451 51.293L36.251 50.2867H34.7725V59.9877ZM36.4391 53.6009C36.4391 52.4067 37.165 51.5748 38.3075 51.5748C39.4501 51.5748 40.1356 52.4201 40.1356 53.6009C40.1356 54.7816 39.4501 55.6135 38.3075 55.6135C37.165 55.6135 36.4391 54.7951 36.4391 53.6009Z" fill="#152C4F"/>
<path d="M42.2051 54.9292C42.2589 56.2442 43.2804 57.0895 44.8665 57.0895C46.4257 57.0895 47.4876 56.2576 47.4876 54.9695C47.4876 54.0168 46.8962 53.3728 45.8074 53.1044L44.638 52.8226C44.1407 52.6885 43.8046 52.5141 43.8046 52.0847C43.8046 51.6285 44.1675 51.3065 44.7589 51.3065C45.3773 51.3065 45.7805 51.6553 45.7805 52.2323H47.2725C47.2187 50.9173 46.2375 50.0854 44.7993 50.0854C43.3745 50.0854 42.3126 50.9173 42.3126 52.1786C42.3126 53.0374 42.81 53.7485 44.0869 54.0839L45.2429 54.3791C45.673 54.4999 45.9418 54.7011 45.9418 55.0768C45.9418 55.6001 45.4445 55.8416 44.8396 55.8416C44.1138 55.8416 43.6971 55.5062 43.6971 54.9292H42.2051Z" fill="#152C4F"/>
<path d="M50.889 57.0898C51.7896 57.0898 52.6498 56.6739 53.0396 56.0567L53.1471 56.9154H54.6795V50.2871H53.0396V53.7623C53.0396 54.9564 52.5826 55.6273 51.5073 55.6273C50.6739 55.6273 50.0959 55.2248 50.0959 53.8562V50.2871H48.4561V54.4332C48.4561 56.0164 49.3163 57.0898 50.889 57.0898Z" fill="#152C4F"/>
<path d="M57.7668 56.9151V53.1044C57.7668 52.031 58.3985 51.5211 59.1781 51.5211C59.9577 51.5211 60.4685 52.0176 60.4685 52.9568V56.9151H62.0681V53.1178C62.0681 52.031 62.6863 51.5211 63.466 51.5211C64.259 51.5211 64.7698 52.0176 64.7698 52.9568V56.9151H66.3559V52.5811C66.3559 51.0515 65.509 50.0854 63.8961 50.0854C62.888 50.0854 62.0949 50.5685 61.7723 51.3467C61.4094 50.5685 60.6836 50.0854 59.5814 50.0854C58.8018 50.0854 58.1028 50.4477 57.713 51.0381L57.6324 50.2867H56.127V56.9151H57.7668Z" fill="#152C4F"/>
<path d="M32.1791 37.8954C30.0187 41.7755 25.6201 43.6216 21.1723 43.6216H3.32715C21.9041 41.304 34.8416 32.0337 36.5002 19.1216C38.1589 32.0337 51.0964 41.304 69.6733 43.6216H51.8281C47.3804 43.6216 42.9817 41.7755 40.8214 37.8954C38.483 33.6958 36.9933 28.9437 36.5002 23.7567C36.0071 28.9437 34.5174 33.6958 32.1791 37.8954Z" fill="#1A4688"/>
<path d="M21.9733 36.524C20.9312 37.1095 19.8351 37.6595 18.6873 38.1719C18.0353 35.9241 17.7954 33.5658 17.9867 31.2166C18.2398 28.1087 19.2399 25.1125 20.8983 22.4934C22.5567 19.8744 24.8222 17.7132 27.4943 16.2014C30.1663 14.6897 33.1624 13.8739 36.217 13.8264C39.2716 13.7789 42.2906 14.5012 45.0065 15.9293C47.7224 17.3573 50.0513 19.447 51.787 22.0134C53.5227 24.5797 54.6117 27.5434 54.9574 30.6419C55.2401 33.1764 55.0185 35.7371 54.3122 38.1719C53.1645 37.6595 52.0683 37.1095 51.0262 36.5239C51.4655 34.7439 51.5887 32.8921 51.384 31.0574C51.1052 28.5587 50.2271 26.1688 48.8274 24.0993C47.4277 22.0299 45.5496 20.3447 43.3596 19.1931C41.1695 18.0415 38.735 17.4591 36.2717 17.4974C33.8084 17.5356 31.3924 18.1935 29.2378 19.4125C27.0831 20.6316 25.2561 22.3744 23.9187 24.4864C22.5814 26.5985 21.775 29.0146 21.5709 31.5208C21.4337 33.2053 21.5714 34.8957 21.9733 36.524Z" fill="#7FB5E6"/>
</svg>
