<svg width="32" height="32" viewBox="0 0 32 32" fill="none" xmlns="http://www.w3.org/2000/svg">
<path d="M15.9998 2.6665C8.63984 2.6665 2.6665 8.63984 2.6665 15.9998C2.6665 23.3598 8.63984 29.3332 15.9998 29.3332C23.3598 29.3332 29.3332 23.3598 29.3332 15.9998C29.3332 8.63984 23.3598 2.6665 15.9998 2.6665ZM22.1865 11.7332C21.9865 13.8398 21.1198 18.9598 20.6798 21.3198C20.4932 22.3198 20.1198 22.6532 19.7732 22.6932C18.9998 22.7598 18.4132 22.1865 17.6665 21.6932C16.4932 20.9198 15.8265 20.4398 14.6932 19.6932C13.3732 18.8265 14.2265 18.3465 14.9865 17.5732C15.1865 17.3732 18.5998 14.2665 18.6665 13.9865C18.6758 13.9441 18.6745 13.9001 18.6629 13.8582C18.6513 13.8164 18.6296 13.7781 18.5998 13.7465C18.5198 13.6798 18.4132 13.7065 18.3198 13.7198C18.1998 13.7465 16.3332 14.9865 12.6932 17.4398C12.1598 17.7998 11.6798 17.9865 11.2532 17.9732C10.7732 17.9598 9.8665 17.7065 9.1865 17.4798C8.3465 17.2132 7.69317 17.0665 7.7465 16.5998C7.77317 16.3598 8.1065 16.1198 8.73317 15.8665C12.6265 14.1732 15.2132 13.0532 16.5065 12.5198C20.2132 10.9732 20.9732 10.7065 21.4798 10.7065C21.5865 10.7065 21.8398 10.7332 21.9998 10.8665C22.1332 10.9732 22.1732 11.1198 22.1865 11.2265C22.1732 11.3065 22.1998 11.5465 22.1865 11.7332Z" fill="#101828"/>
</svg>
