<svg width="32" height="32" viewBox="0 0 32 32" fill="none" xmlns="http://www.w3.org/2000/svg">
<path fill-rule="evenodd" clip-rule="evenodd" d="M15.9998 5.3335C17.1398 5.3335 18.3092 5.36283 19.4425 5.41083L20.7812 5.47483L22.0625 5.55083L23.2625 5.63216L24.3585 5.7175C25.5481 5.80802 26.6676 6.31541 27.5198 7.1503C28.372 7.98519 28.9022 9.09402 29.0172 10.2815L29.0705 10.8482L29.1705 12.0615C29.2638 13.3188 29.3332 14.6895 29.3332 16.0002C29.3332 17.3108 29.2638 18.6815 29.1705 19.9388L29.0705 21.1522L29.0172 21.7188C28.9022 22.9065 28.3717 24.0155 27.5193 24.8504C26.6668 25.6853 25.547 26.1926 24.3572 26.2828L23.2638 26.3668L22.0638 26.4495L20.7812 26.5255L19.4425 26.5895C18.2956 26.6392 17.1478 26.665 15.9998 26.6668C14.8519 26.665 13.7041 26.6392 12.5572 26.5895L11.2185 26.5255L9.93717 26.4495L8.73717 26.3668L7.64117 26.2828C6.45159 26.1923 5.3321 25.6849 4.4799 24.85C3.62769 24.0151 3.09742 22.9063 2.9825 21.7188L2.92917 21.1522L2.82917 19.9388C2.72761 18.6283 2.67336 17.3146 2.6665 16.0002C2.6665 14.6895 2.73584 13.3188 2.82917 12.0615L2.92917 10.8482L2.9825 10.2815C3.09738 9.09423 3.62745 7.98557 4.47939 7.1507C5.33132 6.31584 6.45049 5.80832 7.63984 5.7175L8.7345 5.63216L9.9345 5.55083L11.2172 5.47483L12.5558 5.41083C13.7032 5.36113 14.8514 5.33535 15.9998 5.3335ZM13.3332 12.7668V19.2335C13.3332 19.8495 13.9998 20.2335 14.5332 19.9268L20.1332 16.6935C20.255 16.6234 20.3562 16.5223 20.4266 16.4006C20.497 16.2789 20.5341 16.1408 20.5341 16.0002C20.5341 15.8596 20.497 15.7214 20.4266 15.5997C20.3562 15.478 20.255 15.377 20.1332 15.3068L14.5332 12.0748C14.4115 12.0046 14.2735 11.9676 14.133 11.9677C13.9926 11.9677 13.8546 12.0047 13.7329 12.075C13.6113 12.1452 13.5103 12.2463 13.4402 12.368C13.37 12.4897 13.3331 12.6277 13.3332 12.7682V12.7668Z" fill="#101828"/>
</svg>
